<svg width="29" height="28" viewBox="0 0 29 28" fill="none" xmlns="http://www.w3.org/2000/svg">
<rect x="0.714355" width="27.5" height="28" rx="8" fill="#DBEAFE"/>
<g clip-path="url(#clip0_614_869)">
<path d="M19 16.5H13C12.725 16.5 12.5 16.275 12.5 16V8C12.5 7.725 12.725 7.5 13 7.5H17.3781L19.5 9.62188V16C19.5 16.275 19.275 16.5 19 16.5ZM13 18H19C20.1031 18 21 17.1031 21 16V9.62188C21 9.225 20.8406 8.84375 20.5594 8.5625L18.4406 6.44063C18.1594 6.15938 17.7781 6 17.3813 6H13C11.8969 6 11 6.89688 11 8V16C11 17.1031 11.8969 18 13 18ZM9 10C7.89688 10 7 10.8969 7 12V20C7 21.1031 7.89688 22 9 22H15C16.1031 22 17 21.1031 17 20V19H15.5V20C15.5 20.275 15.275 20.5 15 20.5H9C8.725 20.5 8.5 20.275 8.5 20V12C8.5 11.725 8.725 11.5 9 11.5H10V10H9Z" fill="#3B82F6"/>
</g>
<defs>
<clipPath id="clip0_614_869">
<rect width="14" height="16" fill="white" transform="translate(7 6)"/>
</clipPath>
</defs>
</svg>
