<svg width="209" height="32" viewBox="0 0 209 32" fill="none" xmlns="http://www.w3.org/2000/svg">
<g clip-path="url(#clip0_612_265)">
<mask id="mask0_612_265" style="mask-type:luminance" maskUnits="userSpaceOnUse" x="0" y="0" width="209" height="32">
<path d="M208.889 0H0V32H208.889V0Z" fill="white"/>
</mask>
<g mask="url(#mask0_612_265)">
<path d="M167.898 15.9482L172.447 23.9315H163.35L167.898 15.9482Z" fill="#1F4D93"/>
<path d="M167.898 15.9486L163.35 7.96533H172.447L167.898 15.9486Z" fill="#183B6F"/>
<path d="M167.898 15.9487H176.995L172.447 23.932L167.898 15.9487Z" fill="#22549F"/>
<path d="M167.898 15.9486L172.446 7.96533L176.995 15.9486H167.898Z" fill="#245AAB"/>
<path d="M195.207 15.9487L190.659 7.96533H199.756L195.207 15.9487Z" fill="#173A6E"/>
<path d="M195.207 15.9486H186.111L190.659 7.96533L195.207 15.9486Z" fill="#1D4786"/>
<path d="M195.207 15.9487L190.659 23.932L186.111 15.9487H195.207Z" fill="#22549F"/>
<path d="M208.862 7.96523H199.766L204.314 -0.0180664L208.862 7.96523Z" fill="#2F74DC"/>
<path d="M208.862 7.96533L204.314 15.9486L199.766 7.96533H208.862Z" fill="#2761B7"/>
<path d="M181.553 7.96522L177.005 -0.0180664H186.101L181.553 7.96522Z" fill="#317AE8"/>
<path d="M181.553 7.96533H190.649L186.101 15.9486L181.553 7.96533Z" fill="#173A6E"/>
<path d="M181.553 7.96522H172.457L177.005 -0.0180664L181.553 7.96522Z" fill="#2F74DC"/>
<path d="M181.553 7.96522L186.101 -0.0180664L190.649 7.96522H181.553Z" fill="#132C51"/>
<path d="M181.553 7.96533L177.005 15.9486L172.457 7.96533H181.553Z" fill="#2761B7"/>
<path d="M167.898 -0.0180664L172.447 7.96523H163.35L167.898 -0.0180664Z" fill="#1A407A"/>
<path d="M167.898 -0.0180664L163.35 7.96522L158.802 -0.018065L167.898 -0.0180664Z" fill="#1F4D93"/>
<path d="M195.207 -0.0180664L199.756 7.96523H190.659L195.207 -0.0180664Z" fill="#132C51"/>
<path d="M195.207 -0.018066L204.304 -0.0180664L199.756 7.96523L195.207 -0.018066Z" fill="#317AE8"/>
<path d="M181.553 23.9316L186.101 31.9149H177.005L181.553 23.9316Z" fill="#1D4786"/>
<path d="M181.553 23.932H172.457L177.005 15.9487L181.553 23.932Z" fill="#15335F"/>
<path d="M181.553 23.9316L177.005 31.915L172.457 23.9316H181.553Z" fill="#173A6E"/>
<path d="M167.898 31.9149L163.35 23.9316H172.447L167.898 31.9149Z" fill="#1D4786"/>
<path d="M167.898 31.9149H158.802L163.35 23.9316L167.898 31.9149Z" fill="#1A407A"/>
<path d="M21.3497 0.0180664L18.9421 7.72329L17.3523 12.6245L13.2868 0.0180664H10.8792L6.85915 12.693L5.26929 7.72329L2.83905 0.0180664H0L5.42827 15.9756H8.29003L10.0616 10.5272L12.1058 4.28102L14.1498 10.5272L15.8987 15.9756H18.8286L24.1887 0.0180664H21.3497Z" fill="black"/>
<path d="M29.09 13.5364V9.0683H37.7661V6.69744H29.09V2.4345H38.1523V0.0180664H26.4553V15.9756H38.2885V13.5364H29.09Z" fill="black"/>
<path d="M54.008 15.9756H56.8925L49.7835 0.0180664H46.8309L39.6992 15.9756H42.561L44.0146 12.6701H52.5544L54.008 15.9756ZM48.2845 2.70805L51.5324 10.2537H45.0366L48.2845 2.70805Z" fill="black"/>
<path d="M68.9756 0.0180664H56.0068V2.48009H61.1626V15.9756H63.8199V2.48009H68.9756V0.0180664Z" fill="black"/>
<path d="M82.2731 0.0180664V6.62906H73.983V0.0180664H71.3257V15.9756H73.983V9.11389H82.2731V15.9756H84.9308V0.0180664H82.2731Z" fill="black"/>
<path d="M91.4823 13.5364V9.0683H100.159V6.69744H91.4823V2.4345H100.545V0.0180664H88.8481V15.9756H100.681V13.5364H91.4823Z" fill="black"/>
<path d="M114.38 15.9756H117.696L112.858 10.3677C115.401 9.8206 116.969 7.92846 116.969 5.28406C116.969 2.11535 114.742 0.0180664 111.336 0.0180664H103.886V15.9756H106.543V10.5272H109.769L114.38 15.9756ZM114.334 5.28406C114.334 7.03939 113.198 8.08803 111.313 8.08803H106.521V2.48009H111.313C113.198 2.48009 114.334 3.55153 114.334 5.28406Z" fill="black"/>
<path d="M127.523 7.86007L132.928 0.0180664H129.817L127.637 3.23238L125.797 5.99075L123.98 3.23238L121.8 0.0180664H118.666L124.048 7.86007L118.438 15.9756H121.595L123.957 12.5334L125.774 9.8206L127.569 12.5334L129.931 15.9756H133.133L127.523 7.86007Z" fill="black"/>
<path d="M149.717 0.0180664L143.676 7.74608L137.634 0.0180664H135.227V15.9756H137.884V4.55457L143.38 11.5531H143.948L149.467 4.53177V15.9756H152.102V0.0180664H149.717Z" fill="black"/>
</g>
</g>
<defs>
<clipPath id="clip0_612_265">
<rect width="208.889" height="32" fill="white"/>
</clipPath>
</defs>
</svg>
