<svg width="29" height="28" viewBox="0 0 29 28" fill="none" xmlns="http://www.w3.org/2000/svg">
<rect x="0.214355" width="28" height="28" rx="8" fill="#DBEAFE"/>
<g clip-path="url(#clip0_614_872)">
<path d="M15.7144 6.75C15.7144 7.16562 16.0487 7.5 16.4644 7.5H19.655L12.6831 14.4688C12.3894 14.7625 12.3894 15.2375 12.6831 15.5281C12.9769 15.8187 13.4519 15.8219 13.7425 15.5281L20.7112 8.55938V11.75C20.7112 12.1656 21.0456 12.5 21.4612 12.5C21.8769 12.5 22.2112 12.1656 22.2112 11.75V6.75C22.2112 6.33437 21.8769 6 21.4612 6H16.4644C16.0487 6 15.7144 6.33437 15.7144 6.75ZM8.46436 7C7.22061 7 6.21436 8.00625 6.21436 9.25V19.75C6.21436 20.9937 7.22061 22 8.46436 22H18.9644C20.2081 22 21.2144 20.9937 21.2144 19.75V15.75C21.2144 15.3344 20.88 15 20.4644 15C20.0487 15 19.7144 15.3344 19.7144 15.75V19.75C19.7144 20.1656 19.38 20.5 18.9644 20.5H8.46436C8.04873 20.5 7.71436 20.1656 7.71436 19.75V9.25C7.71436 8.83437 8.04873 8.5 8.46436 8.5H12.4644C12.88 8.5 13.2144 8.16563 13.2144 7.75C13.2144 7.33438 12.88 7 12.4644 7H8.46436Z" fill="#3B82F6"/>
</g>
<defs>
<clipPath id="clip0_614_872">
<rect width="16" height="16" fill="white" transform="translate(6.21436 6)"/>
</clipPath>
</defs>
</svg>
